<svg width="45" height="45" viewBox="0 0 45 45" fill="none" xmlns="http://www.w3.org/2000/svg">
<mask id="path-1-inside-1_17_401" fill="white">
<path d="M7 45C4.79086 45 3 43.2091 3 41L3 27C3 25.8954 3.89543 25 5 25L9 25C10.1046 25 11 25.8954 11 27L11 41C11 43.2091 9.20914 45 7 45Z"/>
</mask>
<path d="M7 45C4.79086 45 3 43.2091 3 41L3 27C3 25.8954 3.89543 25 5 25L9 25C10.1046 25 11 25.8954 11 27L11 41C11 43.2091 9.20914 45 7 45Z" stroke="#182C59" stroke-width="6" mask="url(#path-1-inside-1_17_401)"/>
<path d="M8.12063 16.7145C8.57252 15.9618 9.38609 15.5013 10.264 15.5013L34.6272 15.5013C35.5415 15.5013 36.3828 16.0005 36.8211 16.8028L41.3449 25.084C41.5269 25.4172 41.2858 25.8237 40.9061 25.8237L3.5341 25.8249C3.14539 25.8249 2.90532 25.4008 3.10542 25.0676L8.12063 16.7145Z" stroke="#182C59" stroke-width="3"/>
<mask id="path-3-inside-2_17_401" fill="white">
<path d="M37 45C34.7909 45 33 43.2091 33 41L33 27C33 25.8954 33.8954 25 35 25L39 25C40.1046 25 41 25.8954 41 27L41 41C41 43.2091 39.2091 45 37 45Z"/>
</mask>
<path d="M37 45C34.7909 45 33 43.2091 33 41L33 27C33 25.8954 33.8954 25 35 25L39 25C40.1046 25 41 25.8954 41 27L41 41C41 43.2091 39.2091 45 37 45Z" stroke="#182C59" stroke-width="6" mask="url(#path-3-inside-2_17_401)"/>
<path d="M15 9.66667L15 14" stroke="#182C59" stroke-width="2" stroke-linecap="round"/>
<path d="M29 10L29 14.3333" stroke="#182C59" stroke-width="2" stroke-linecap="round"/>
<mask id="path-6-inside-3_17_401" fill="white">
<path d="M10 1C10 0.447715 10.4477 0 11 0H19C19.5523 0 20 0.447715 20 1V6C20 8.20914 18.2091 10 16 10H14C11.7909 10 10 8.20914 10 6V1Z"/>
</mask>
<path d="M10 1C10 0.447715 10.4477 0 11 0H19C19.5523 0 20 0.447715 20 1V6C20 8.20914 18.2091 10 16 10H14C11.7909 10 10 8.20914 10 6V1Z" stroke="#FF498B" stroke-width="4" mask="url(#path-6-inside-3_17_401)"/>
<mask id="path-7-inside-4_17_401" fill="white">
<path d="M24 1C24 0.447715 24.4477 0 25 0H33C33.5523 0 34 0.447715 34 1V6C34 8.20914 32.2091 10 30 10H28C25.7909 10 24 8.20914 24 6V1Z"/>
</mask>
<path d="M24 1C24 0.447715 24.4477 0 25 0H33C33.5523 0 34 0.447715 34 1V6C34 8.20914 32.2091 10 30 10H28C25.7909 10 24 8.20914 24 6V1Z" stroke="#FF498B" stroke-width="4" mask="url(#path-7-inside-4_17_401)"/>
</svg>
