<svg width="26" height="46" viewBox="0 0 26 46" fill="none" xmlns="http://www.w3.org/2000/svg">
<path d="M1.5 30C1.5 28.6193 2.61929 27.5 4 27.5H22C23.3807 27.5 24.5 28.6193 24.5 30V33.9167C24.5 35.2974 23.3807 36.4167 22 36.4167H4C2.61929 36.4167 1.5 35.2974 1.5 33.9167V30Z" stroke="#182C59" stroke-width="3"/>
<path d="M18.4167 37.9167L18.4167 45.5" stroke="#182C59" stroke-width="2" stroke-linecap="round"/>
<path d="M7.58333 37.9167L7.58333 45.5" stroke="#182C59" stroke-width="2" stroke-linecap="round"/>
<path d="M18.4167 15.1667L18.4167 19.5" stroke="#182C59" stroke-width="2" stroke-linecap="round"/>
<path d="M13 15.1667L13 26" stroke="#182C59" stroke-width="2" stroke-linecap="round"/>
<path d="M7.03482 1.87873C7.09046 1.65615 7.29045 1.5 7.51989 1.5H17.9914C18.2146 1.5 18.4108 1.64799 18.4722 1.86264L21.6626 13.0293C21.7539 13.3487 21.5141 13.6667 21.1819 13.6667H4.72822C4.40294 13.6667 4.16426 13.361 4.24315 13.0454L7.03482 1.87873Z" stroke="#FF498B" stroke-width="3"/>
</svg>
