<svg width="48" height="43" viewBox="0 0 48 43" fill="none" xmlns="http://www.w3.org/2000/svg">
<path d="M1.5 4C1.5 2.61929 2.61929 1.5 4 1.5H44C45.3807 1.5 46.5 2.61929 46.5 4V18C46.5 19.3807 45.3807 20.5 44 20.5H4C2.61929 20.5 1.5 19.3807 1.5 18V4Z" stroke="#182C59" stroke-width="3"/>
<path d="M2 15.35L45.0003 15.0909" stroke="#182C59" stroke-width="3" stroke-linecap="round"/>
<path d="M20 8.5L29 8.5" stroke="#FF498B" stroke-width="3" stroke-linecap="round"/>
<path d="M6 26L7.82704 29.1143C9.18411 31.4275 9.29182 34.2667 8.11392 36.6761L6 41" stroke="#162D59" stroke-width="3" stroke-linecap="round"/>
<path d="M14 26L15.827 29.1143C17.1841 31.4275 17.2918 34.2667 16.1139 36.6761L14 41" stroke="#162D59" stroke-width="3" stroke-linecap="round"/>
<path d="M43 26L41.173 29.1143C39.8159 31.4275 39.7082 34.2667 40.8861 36.6761L43 41" stroke="#162D59" stroke-width="3" stroke-linecap="round"/>
<path d="M35 26L33.173 29.1143C31.8159 31.4275 31.7082 34.2667 32.8861 36.6761L35 41" stroke="#162D59" stroke-width="3" stroke-linecap="round"/>
</svg>
