<svg width="48" height="48" viewBox="0 0 48 48" fill="none" xmlns="http://www.w3.org/2000/svg">
<mask id="path-1-inside-1_6_66" fill="white">
<path fill-rule="evenodd" clip-rule="evenodd" d="M18.4189 13C17.6057 13 16.8735 13.4923 16.5667 14.2454L15.037 18H6C2.68629 18 0 20.6863 0 24V42C0 45.3137 2.68629 48 6 48H42C45.3137 48 48 45.3137 48 42V24C48 20.6863 45.3137 18 42 18H32.963L31.4333 14.2454C31.1265 13.4923 30.3943 13 29.5811 13H18.4189Z"/>
</mask>
<path d="M16.5667 14.2454L19.345 15.3773L19.345 15.3773L16.5667 14.2454ZM15.037 18V21H17.0542L17.8153 19.1319L15.037 18ZM32.963 18L30.1847 19.1319L30.9458 21H32.963V18ZM31.4333 14.2454L28.655 15.3773L28.655 15.3773L31.4333 14.2454ZM19.345 15.3773C19.1916 15.7538 18.8255 16 18.4189 16V10C16.386 10 14.5554 11.2308 13.7884 13.1135L19.345 15.3773ZM17.8153 19.1319L19.345 15.3773L13.7884 13.1135L12.2588 16.8681L17.8153 19.1319ZM6 21H15.037V15H6V21ZM3 24C3 22.3431 4.34315 21 6 21V15C1.02944 15 -3 19.0294 -3 24H3ZM3 42V24H-3V42H3ZM6 45C4.34315 45 3 43.6569 3 42H-3C-3 46.9706 1.02944 51 6 51V45ZM42 45H6V51H42V45ZM45 42C45 43.6569 43.6569 45 42 45V51C46.9706 51 51 46.9706 51 42H45ZM45 24V42H51V24H45ZM42 21C43.6569 21 45 22.3431 45 24H51C51 19.0294 46.9706 15 42 15V21ZM32.963 21H42V15H32.963V21ZM28.655 15.3773L30.1847 19.1319L35.7412 16.8681L34.2116 13.1135L28.655 15.3773ZM29.5811 16C29.1745 16 28.8084 15.7538 28.655 15.3773L34.2116 13.1135C33.4446 11.2308 31.614 10 29.5811 10V16ZM18.4189 16H29.5811V10H18.4189V16Z" fill="#182C59" mask="url(#path-1-inside-1_6_66)"/>
<circle cx="24" cy="33" r="7" stroke="#FF498B" stroke-width="2"/>
<path d="M32 24H40" stroke="#182C59" stroke-width="2" stroke-linecap="round"/>
</svg>
