<svg width="48" height="48" viewBox="0 0 48 48" fill="none" xmlns="http://www.w3.org/2000/svg">
<path d="M27 43C27 43.2818 26.8428 43.6855 26.2547 44.1822C25.6711 44.6749 24.7674 45.1637 23.5632 45.5938C21.1634 46.4509 17.7824 47 14 47C10.2176 47 6.83661 46.4509 4.43684 45.5938C3.23261 45.1637 2.32889 44.6749 1.74534 44.1822C1.15715 43.6855 1 43.2818 1 43C1 42.7182 1.15715 42.3145 1.74534 41.8178C2.32889 41.3251 3.23261 40.8363 4.43684 40.4062C6.83661 39.5491 10.2176 39 14 39C17.7824 39 21.1634 39.5491 23.5632 40.4062C24.7674 40.8363 25.6711 41.3251 26.2547 41.8178C26.8428 42.3145 27 42.7182 27 43Z" stroke="#182C59" stroke-width="2"/>
<path d="M23 14C23 16.6318 21.9064 23.7829 20.1071 30.3051C19.2094 33.5589 18.1543 36.5872 17.0063 38.7819C16.4309 39.8821 15.8579 40.7222 15.3073 41.2743C14.7514 41.8316 14.3174 42 14 42C13.6826 42 13.2486 41.8316 12.6927 41.2743C12.1421 40.7222 11.5691 39.8821 10.9937 38.7819C9.84569 36.5872 8.79056 33.5589 7.89292 30.3051C6.0936 23.7829 5 16.6318 5 14C5 9.02944 9.02944 5 14 5C18.9706 5 23 9.02944 23 14Z" fill="white" stroke="#182C59" stroke-width="2"/>
<circle cx="14" cy="14" r="3" stroke="#FF498B" stroke-width="2"/>
</svg>
